<?xml version="1.0" encoding="UTF-8"?>
<svg xmlns="http://www.w3.org/2000/svg" viewBox="0 0 700 500">
  <defs>
    <style>
      .cls-1, .cls-2, .cls-3, .cls-4, .cls-5 {
        fill: none;
      }

      .cls-1, .cls-6, .cls-7, .cls-3, .cls-8, .cls-9, .cls-5, .cls-10, .cls-11, .cls-12, .cls-13 {
        stroke: #263238;
      }

      .cls-1, .cls-6, .cls-3, .cls-4, .cls-14, .cls-15, .cls-10, .cls-13 {
        stroke-miterlimit: 10;
      }

      .cls-1, .cls-11 {
        stroke-width: .5px;
      }

      .cls-2 {
        stroke: #6e6e6e;
      }

      .cls-2, .cls-7, .cls-8, .cls-9, .cls-5, .cls-11, .cls-12 {
        stroke-linecap: round;
        stroke-linejoin: round;
      }

      .cls-6, .cls-8, .cls-16 {
        fill: #92e3a9;
      }

      .cls-3 {
        stroke-width: 2px;
      }

      .cls-17, .cls-18, .cls-16, .cls-19, .cls-20 {
        stroke-width: 0px;
      }

      .cls-18 {
        opacity: .8;
      }

      .cls-18, .cls-9, .cls-11 {
        fill: #fff;
      }

      .cls-4 {
        stroke: #a3a3a3;
      }

      .cls-14, .cls-15 {
        stroke: #000;
      }

      .cls-14, .cls-10 {
        fill: #2c285b;
      }

      .cls-19, .cls-12 {
        fill: #263238;
      }

      .cls-15 {
        fill: #ca4f24;
      }

      .cls-20 {
        fill: #d6d6d6;
      }

      .cls-13 {
        fill: #5b2e17;
      }
    </style>
  </defs>
  <g id="Background_Simple" data-name="Background Simple">
    <g>
      <path class="cls-16" d="m610.31,190.09c-19.08-62.35-68.12-112.26-126.16-138.57-55.37-25.1-125.37-37.5-177.84,1.13-34.55,25.44-54.11,66.2-85.74,94.73-15.72,14.18-32.93,18.79-51.64,27.27-45.59,20.67-83.74,60.54-86.88,113.14-5.25,87.93,64.46,148.76,142.24,168.71,102.78,26.36,179.61,26.36,250.21-2.11,36.67-14.79,73.98-33.49,100.41-64.11,39.97-46.31,51.02-112.08,41.93-171.55-1.5-9.78-3.69-19.34-6.53-28.62Z"/>
      <path class="cls-18" d="m610.31,190.09c-19.08-62.35-68.12-112.26-126.16-138.57-55.37-25.1-125.37-37.5-177.84,1.13-34.55,25.44-54.11,66.2-85.74,94.73-15.72,14.18-32.93,18.79-51.64,27.27-45.59,20.67-83.74,60.54-86.88,113.14-5.25,87.93,64.46,148.76,142.24,168.71,102.78,26.36,179.61,26.36,250.21-2.11,36.67-14.79,73.98-33.49,100.41-64.11,39.97-46.31,51.02-112.08,41.93-171.55-1.5-9.78-3.69-19.34-6.53-28.62Z"/>
    </g>
  </g>
  <g id="Pictures">
    <g>
      <g>
        <rect class="cls-4" x="181.09" y="40" width="91.72" height="114.29"/>
        <rect class="cls-4" x="184.84" y="44.68" width="84.22" height="104.94"/>
        <rect class="cls-20" x="210.94" y="77.19" width="32.03" height="39.91"/>
      </g>
      <g>
        <rect class="cls-4" x="278.62" y="76.13" width="62.2" height="77.51"/>
        <rect class="cls-4" x="281.08" y="79.2" width="57.27" height="71.36"/>
        <rect class="cls-20" x="298.86" y="101.35" width="21.72" height="27.07"/>
      </g>
      <g>
        <rect class="cls-4" x="160.38" y="162.83" width="62.2" height="77.51" transform="translate(393.07 10.1) rotate(90)"/>
        <rect class="cls-4" x="163.31" y="166.48" width="56.35" height="70.22" transform="translate(393.07 10.1) rotate(90)"/>
        <rect class="cls-20" x="180.62" y="188.05" width="21.72" height="27.07" transform="translate(393.07 10.1) rotate(90)"/>
      </g>
      <g>
        <rect class="cls-4" x="237.46" y="170.02" width="79.4" height="98.93"/>
        <rect class="cls-4" x="240.66" y="174.01" width="73" height="90.96"/>
        <rect class="cls-20" x="263.3" y="202.21" width="27.73" height="34.55"/>
      </g>
    </g>
  </g>
  <g id="Plants">
    <g>
      <g>
        <line class="cls-3" x1="80.59" y1="254.67" x2="100.54" y2="445.91"/>
        <g>
          <g>
            <line class="cls-3" x1="96.87" y1="408.55" x2="88.28" y2="399.76"/>
            <path class="cls-6" d="m91.03,402.62s.26-4.23-3.6-7.67c-2.32-2.07-14.54-7.22-15.7-2.91-1.26,4.68,11.25,13.88,19.31,10.59Z"/>
            <line class="cls-1" x1="91.03" y1="402.62" x2="79.39" y2="395.37"/>
          </g>
          <g>
            <line class="cls-3" x1="98.52" y1="430.2" x2="90.55" y2="421.5"/>
            <path class="cls-6" d="m93.3,424.37s.26-4.23-3.6-7.67c-2.32-2.07-14.54-7.22-15.7-2.91-1.26,4.68,11.25,13.88,19.31,10.59Z"/>
            <line class="cls-1" x1="93.3" y1="424.37" x2="81.66" y2="417.12"/>
          </g>
          <g>
            <line class="cls-3" x1="91.38" y1="355.42" x2="82.33" y2="345.86"/>
            <path class="cls-6" d="m85.49,349.55s.26-4.23-3.6-7.67c-2.32-2.07-14.54-7.22-15.7-2.91-1.26,4.68,11.25,13.88,19.31,10.59Z"/>
            <line class="cls-1" x1="85.49" y1="349.55" x2="73.85" y2="342.3"/>
          </g>
          <g>
            <line class="cls-3" x1="93.16" y1="377.22" x2="85.01" y2="368.43"/>
            <path class="cls-6" d="m87.76,371.3s.26-4.23-3.6-7.67c-2.32-2.07-14.54-7.22-15.7-2.91-1.26,4.68,11.25,13.88,19.31,10.59Z"/>
            <line class="cls-1" x1="87.76" y1="371.3" x2="76.12" y2="364.05"/>
          </g>
          <g>
            <line class="cls-3" x1="87.8" y1="320.11" x2="79.05" y2="311.35"/>
            <path class="cls-6" d="m81.8,314.22s.26-4.23-3.6-7.67c-2.32-2.07-14.54-7.22-15.7-2.91-1.26,4.68,11.25,13.88,19.31,10.59Z"/>
            <line class="cls-1" x1="81.8" y1="314.22" x2="70.17" y2="306.97"/>
          </g>
          <g>
            <line class="cls-3" x1="83.67" y1="284.65" x2="75.35" y2="275.87"/>
            <path class="cls-6" d="m78.1,278.73s.26-4.23-3.6-7.67c-2.32-2.07-14.54-7.22-15.7-2.91-1.26,4.68,11.25,13.88,19.31,10.59Z"/>
            <line class="cls-1" x1="78.1" y1="278.73" x2="66.46" y2="271.48"/>
          </g>
          <g>
            <line class="cls-3" x1="95.81" y1="396.44" x2="102.69" y2="385.23"/>
            <path class="cls-6" d="m100.59,388.59s-1.13-4.08,1.94-8.25c1.84-2.51,12.74-10.06,14.76-6.09,2.2,4.32-8.14,15.9-16.7,14.34Z"/>
            <line class="cls-1" x1="100.59" y1="388.59" x2="111.06" y2="378.58"/>
          </g>
          <g>
            <line class="cls-3" x1="89.83" y1="339.21" x2="96.71" y2="327.99"/>
            <path class="cls-6" d="m94.61,331.36s-1.13-4.08,1.94-8.25c1.84-2.51,12.74-10.06,14.76-6.09,2.2,4.32-8.14,15.9-16.7,14.34Z"/>
            <line class="cls-1" x1="94.61" y1="331.36" x2="105.09" y2="321.35"/>
          </g>
          <g>
            <line class="cls-3" x1="87.21" y1="314.06" x2="94.09" y2="302.84"/>
            <path class="cls-6" d="m91.99,306.21s-1.13-4.08,1.94-8.25c1.84-2.51,12.74-10.06,14.76-6.09,2.2,4.32-8.14,15.9-16.7,14.34Z"/>
            <line class="cls-1" x1="91.99" y1="306.21" x2="102.47" y2="296.2"/>
          </g>
          <g>
            <line class="cls-3" x1="83.36" y1="277.19" x2="90.24" y2="265.97"/>
            <path class="cls-6" d="m88.14,269.34s-1.13-4.08,1.94-8.25c1.84-2.51,12.74-10.06,14.76-6.09,2.2,4.32-8.14,15.9-16.7,14.34Z"/>
            <line class="cls-1" x1="88.14" y1="269.34" x2="98.62" y2="259.32"/>
            <path class="cls-6" d="m80.42,253.61s-1.13-4.08,1.94-8.25c1.84-2.51,12.74-10.06,14.76-6.09,2.2,4.32-8.14,15.9-16.7,14.34Z"/>
            <line class="cls-1" x1="80.42" y1="253.61" x2="90.9" y2="243.6"/>
            <path class="cls-6" d="m81.03,254.04s-4.18.69-8-2.79c-2.3-2.1-8.67-13.73-4.51-15.32,4.53-1.74,14.96,9.76,12.51,18.12Z"/>
            <line class="cls-1" x1="81.03" y1="254.04" x2="72.17" y2="242.58"/>
          </g>
        </g>
      </g>
      <g>
        <line class="cls-3" x1="133.23" y1="281.41" x2="116.95" y2="445.91"/>
        <g>
          <g>
            <line class="cls-3" x1="117.77" y1="436.18" x2="110.88" y2="424.96"/>
            <path class="cls-6" d="m112.98,428.33s1.12-4.08-1.94-8.25c-1.85-2.51-12.75-10.06-14.77-6.08-2.2,4.32,8.15,15.9,16.71,14.33Z"/>
            <line class="cls-1" x1="112.98" y1="428.33" x2="103.09" y2="418.84"/>
          </g>
          <g>
            <line class="cls-3" x1="123.28" y1="383.1" x2="116.39" y2="371.89"/>
            <path class="cls-6" d="m118.49,375.26s1.12-4.08-1.94-8.25c-1.85-2.51-12.75-10.06-14.77-6.08-2.2,4.32,8.15,15.9,16.71,14.33Z"/>
            <line class="cls-1" x1="118.49" y1="375.26" x2="108.6" y2="365.76"/>
          </g>
          <g>
            <line class="cls-3" x1="121.02" y1="404.85" x2="114.13" y2="393.64"/>
            <path class="cls-6" d="m116.23,397.01s1.12-4.08-1.94-8.25c-1.85-2.51-12.75-10.06-14.77-6.08-2.2,4.32,8.15,15.9,16.71,14.33Z"/>
            <line class="cls-1" x1="116.23" y1="397.01" x2="106.34" y2="387.51"/>
          </g>
          <g>
            <line class="cls-3" x1="126.94" y1="347.77" x2="120.06" y2="336.56"/>
            <path class="cls-6" d="m122.16,339.92s1.12-4.08-1.94-8.25c-1.85-2.51-12.75-10.06-14.77-6.08-2.2,4.32,8.15,15.9,16.71,14.33Z"/>
            <line class="cls-1" x1="122.16" y1="339.92" x2="112.26" y2="330.43"/>
          </g>
          <g>
            <line class="cls-3" x1="130.62" y1="312.28" x2="123.74" y2="301.07"/>
            <path class="cls-6" d="m125.84,304.44s1.12-4.08-1.94-8.25c-1.85-2.51-12.75-10.06-14.77-6.08-2.2,4.32,8.15,15.9,16.71,14.33Z"/>
            <line class="cls-1" x1="125.84" y1="304.44" x2="115.94" y2="294.95"/>
          </g>
          <g>
            <line class="cls-3" x1="118.93" y1="423.27" x2="127.97" y2="413.71"/>
            <path class="cls-6" d="m125.22,416.57s-.26-4.23,3.6-7.68c2.32-2.08,14.54-7.22,15.7-2.92,1.26,4.68-11.24,13.88-19.3,10.6Z"/>
            <line class="cls-1" x1="125.22" y1="416.57" x2="137.54" y2="408.93"/>
          </g>
          <g>
            <line class="cls-3" x1="124.87" y1="366.03" x2="133.91" y2="356.47"/>
            <path class="cls-6" d="m131.16,359.34s-.26-4.23,3.6-7.68c2.32-2.08,14.54-7.22,15.7-2.92,1.26,4.68-11.24,13.88-19.3,10.6Z"/>
            <line class="cls-1" x1="131.16" y1="359.34" x2="143.48" y2="351.7"/>
          </g>
          <g>
            <line class="cls-3" x1="127.48" y1="340.88" x2="136.52" y2="331.32"/>
            <path class="cls-6" d="m133.77,334.18s-.26-4.23,3.6-7.68c2.32-2.08,14.54-7.22,15.7-2.92,1.26,4.68-11.24,13.88-19.3,10.6Z"/>
            <line class="cls-1" x1="133.77" y1="334.18" x2="146.09" y2="326.54"/>
          </g>
          <g>
            <line class="cls-3" x1="131.3" y1="304.01" x2="140.35" y2="294.45"/>
            <path class="cls-6" d="m137.6,297.31s-.26-4.23,3.6-7.68c2.32-2.08,14.54-7.22,15.7-2.92,1.26,4.68-11.24,13.88-19.3,10.6Z"/>
            <line class="cls-1" x1="137.6" y1="297.31" x2="149.91" y2="289.67"/>
            <path class="cls-6" d="m133.28,280.33s-.26-4.23,3.6-7.68c2.32-2.08,14.54-7.22,15.7-2.92,1.26,4.68-11.24,13.88-19.3,10.6Z"/>
            <line class="cls-1" x1="133.28" y1="280.33" x2="145.59" y2="272.69"/>
            <path class="cls-6" d="m133.78,280.88s-4.23-.18-7.26-4.38c-1.82-2.53-5.66-15.22-1.26-15.92,4.79-.77,12.63,12.63,8.51,20.3Z"/>
            <line class="cls-1" x1="133.78" y1="280.88" x2="127.48" y2="267.83"/>
          </g>
        </g>
      </g>
      <g>
        <line class="cls-3" x1="110.48" y1="204.07" x2="110.48" y2="445.91"/>
        <g>
          <g>
            <line class="cls-3" x1="110.68" y1="409.55" x2="102.67" y2="399.1"/>
            <path class="cls-6" d="m105.11,402.24s.7-4.18-2.78-8.01c-2.09-2.3-13.72-8.69-15.32-4.53-1.74,4.53,9.75,14.97,18.1,12.53Z"/>
            <line class="cls-1" x1="105.11" y1="402.24" x2="94.29" y2="393.82"/>
          </g>
          <g>
            <line class="cls-3" x1="110.68" y1="364.1" x2="102.67" y2="353.65"/>
            <path class="cls-6" d="m105.11,356.79s.7-4.18-2.78-8.01c-2.09-2.3-13.72-8.69-15.32-4.53-1.74,4.53,9.75,14.97,18.1,12.53Z"/>
            <line class="cls-1" x1="105.11" y1="356.79" x2="94.29" y2="348.37"/>
          </g>
          <g>
            <line class="cls-3" x1="110.68" y1="310.74" x2="102.67" y2="300.29"/>
            <path class="cls-6" d="m105.11,303.43s.7-4.18-2.78-8.01c-2.09-2.3-13.72-8.69-15.32-4.53-1.74,4.53,9.75,14.97,18.1,12.53Z"/>
            <line class="cls-1" x1="105.11" y1="303.43" x2="94.29" y2="295.01"/>
          </g>
          <g>
            <line class="cls-3" x1="110.68" y1="275.22" x2="102.67" y2="264.77"/>
            <path class="cls-6" d="m105.11,267.91s.7-4.18-2.78-8.01c-2.09-2.3-13.72-8.69-15.32-4.53-1.74,4.53,9.75,14.97,18.1,12.53Z"/>
            <line class="cls-1" x1="105.11" y1="267.91" x2="94.29" y2="259.49"/>
          </g>
          <g>
            <line class="cls-3" x1="110.68" y1="239.54" x2="102.67" y2="229.1"/>
            <path class="cls-6" d="m105.11,232.23s.7-4.18-2.78-8.01c-2.09-2.3-13.72-8.69-15.32-4.53-1.74,4.53,9.75,14.97,18.1,12.53Z"/>
            <line class="cls-1" x1="105.11" y1="232.23" x2="94.29" y2="223.81"/>
          </g>
          <g>
            <line class="cls-3" x1="110.5" y1="423.42" x2="118.51" y2="412.98"/>
            <path class="cls-6" d="m116.07,416.11s-.7-4.18,2.78-8.01c2.09-2.3,13.72-8.69,15.32-4.53,1.74,4.53-9.75,14.97-18.1,12.53Z"/>
            <line class="cls-1" x1="116.07" y1="416.11" x2="127.53" y2="407.24"/>
          </g>
          <g>
            <line class="cls-3" x1="110.5" y1="351.14" x2="118.51" y2="340.7"/>
            <path class="cls-6" d="m116.07,343.83s-.7-4.18,2.78-8.01c2.09-2.3,13.72-8.69,15.32-4.53,1.74,4.53-9.75,14.97-18.1,12.53Z"/>
            <line class="cls-1" x1="116.07" y1="343.83" x2="127.53" y2="334.96"/>
          </g>
          <g>
            <line class="cls-3" x1="110.5" y1="315.46" x2="118.51" y2="305.02"/>
            <path class="cls-6" d="m116.07,308.15s-.7-4.18,2.78-8.01c2.09-2.3,13.72-8.69,15.32-4.53,1.74,4.53-9.75,14.97-18.1,12.53Z"/>
            <line class="cls-1" x1="116.07" y1="308.15" x2="127.53" y2="299.28"/>
          </g>
          <g>
            <line class="cls-3" x1="110.5" y1="268.31" x2="118.51" y2="257.87"/>
            <path class="cls-6" d="m116.07,261s-.7-4.18,2.78-8.01c2.09-2.3,13.72-8.69,15.32-4.53,1.74,4.53-9.75,14.97-18.1,12.53Z"/>
            <line class="cls-1" x1="116.07" y1="261" x2="127.53" y2="252.13"/>
          </g>
          <g>
            <line class="cls-3" x1="110.5" y1="231.24" x2="118.51" y2="220.79"/>
            <path class="cls-6" d="m116.07,223.93s-.7-4.18,2.78-8.01c2.09-2.3,13.72-8.69,15.32-4.53,1.74,4.53-9.75,14.97-18.1,12.53Z"/>
            <line class="cls-1" x1="116.07" y1="223.93" x2="127.53" y2="215.05"/>
            <path class="cls-6" d="m110.02,207.48s-.7-4.18,2.78-8.01c2.09-2.3,13.72-8.69,15.32-4.53,1.74,4.53-9.75,14.97-18.1,12.53Z"/>
            <line class="cls-1" x1="110.02" y1="207.48" x2="121.48" y2="198.61"/>
            <path class="cls-6" d="m110.58,207.98s-4.23.25-7.67-3.61c-2.07-2.32-7.2-14.55-2.89-15.71,4.68-1.26,13.86,11.26,10.56,19.32Z"/>
            <line class="cls-1" x1="110.58" y1="207.98" x2="102.96" y2="195.65"/>
          </g>
        </g>
      </g>
    </g>
  </g>
  <g id="Characters">
    <g>
      <g>
        <g>
          <path class="cls-12" d="m249.11,446.05c-3.55-10.9-12.23-37.83-11.53-38.86.87-1.3.87-8.24.87-8.24,0,0-28.2,3.47-48.15-13.45-19.96-16.92-43.82-36.88-43.82-36.88,0,0-3.47,10.41-6.94,21.26-2.94,9.17-8.66,60.54-10.36,76.17h119.94Z"/>
          <g>
            <path class="cls-2" d="m179.32,415.83c5.06,4.68,13.82,12.93,20.25,19.86"/>
            <path class="cls-2" d="m175.26,412.11s.58.52,1.57,1.43"/>
          </g>
        </g>
        <g>
          <path class="cls-14" d="m273.72,228.99s-29.66,12.45-43.2,21.6c-13.55,9.15-41.01,35.88-49.06,46.5-8.05,10.62-27.83,32.95-32.95,39.18s-8.42,9.89-6.96,20.14,10.25,26.73,19.77,35.15c9.52,8.42,28.54,18.94,53.09,17.94,14.27-.58,22.7-3.66,30.39-11.35,7.69-7.69,19.41-27.83,29.66-37.71,10.25-9.89,27.83-30.02,27.83-30.02,0,0,46.87,16.84,51.26,16.84s26.36-12.45,26.73-16.11c.37-3.66-48.33-35.88-52.72-43.94-4.39-8.06-13.55-22.7-13.55-22.7,0,0-21.97-31.85-40.27-35.52Z"/>
          <path class="cls-12" d="m327.54,287.2c-4.39-8.06-13.55-22.7-13.55-22.7,0,0-6.38-9.24-15.12-18.35-2.05.4-3.78,1.04-5.06,1.99-11.35,8.37-5.98,29.28-4.78,46.01s8.96,29.28,8.96,29.28l-17.69,31.1c9.96-10.36,21.98-24.13,21.98-24.13,0,0,46.87,16.84,51.26,16.84s26.36-12.45,26.73-16.11c.37-3.66-48.33-35.88-52.72-43.94Z"/>
          <path class="cls-15" d="m260.14,237.55s-7.21-3.61-12.26,13.71c-5.05,17.31,7.93,62.76,14.43,63.48,6.49.72,20.2-33.18,22.36-43.28,2.16-10.1-4.33-40.4-24.53-33.9Z"/>
        </g>
        <g>
          <g>
            <path class="cls-13" d="m282.5,275.12s-3.74,3.19-9.15,7.32c-6.22,4.76-7.37,13.62-11.76,8.49-4.39-5.13-10.94-41.08-6.91-48.4s19.04-17.21,20.14-17.94,11.35,12.81,12.08,22.7c.73,9.89-4.39,27.83-4.39,27.83Z"/>
            <path class="cls-12" d="m274.81,224.59c-1.1.73-16.11,10.62-20.14,17.94-1.58,2.88-1.53,10.19-.62,18.31,1.44.98,3,2.03,4.68,3.14,13.57,8.95,23.77,11.14,23.77,11.14l.75-39.13c-3.3-6.51-7.74-11.87-8.44-11.4Z"/>
          </g>
          <g>
            <path class="cls-13" d="m339.99,234.11s-10.25,17.57-15.38,26.36c-5.13,8.79-10.98,19.04-21.24,21.24-10.25,2.2-20.14,3.66-25.63-5.13-5.49-8.79-11.35-20.5-7.69-36.61,3.66-16.11,9.89-20.87,17.57-26.73,7.69-5.86,15.38-9.52,24.16-6.22,8.79,3.3,28.19,27.09,28.19,27.09Z"/>
            <g>
              <g>
                <path class="cls-17" d="m308.87,243.16c-.77,1.36-2.06,2.09-2.88,1.62-.82-.46-.85-1.94-.08-3.3.77-1.36,2.06-2.09,2.88-1.62.82.46.85,1.94.08,3.3Z"/>
                <path class="cls-17" d="m324.78,250.69c-.77,1.36-2.06,2.08-2.88,1.62-.82-.46-.85-1.94-.08-3.3.77-1.36,2.06-2.09,2.88-1.62.82.46.85,1.94.08,3.3Z"/>
                <path class="cls-17" d="m304.4,232.19s5.39-1.33,10.59,2.5"/>
                <path class="cls-17" d="m324.51,240.11s7.45.39,7.13,5.79"/>
                <path class="cls-17" d="m296.26,259.22s2.03,6.37,11.68,9.25"/>
              </g>
              <path class="cls-17" d="m322.14,245.03l-2.27,5.29s-4.98,12.51-5.89,14.18-7.71-1.72-9.59-4.74"/>
            </g>
          </g>
          <path class="cls-7" d="m279.57,231.18s1.1,0,4.03-1.83,6.22,1.46,13.18-1.1c6.96-2.56-2.93-12.45,6.59-13.18,9.52-.73,14.65,14.65,26.36,20.14,11.72,5.49,19.77,3.3,24.9-9.89,5.13-13.18-2.2-20.87-8.05-26.73-5.86-5.86,0-6.96-1.83-16.11s-10.98-12.81-19.77-9.52c-8.79,3.3-6.59,5.86-11.35,5.86s-9.15-6.22-22.33-3.66c-13.18,2.56-23.43,16.48-24.9,29.66-1.46,13.18,2.93,27.09,4.76,27.83,1.83.73,8.42-1.46,8.42-1.46Z"/>
          <path class="cls-13" d="m279.59,235.96s3.62-11.24-.22-14.58c-3.84-3.34-10.21-1.19-11.52,3.78s-3.38,13.89-1.21,16.17c2.18,2.28,6.41,1.59,6.41,1.59"/>
        </g>
      </g>
      <g>
        <path class="cls-12" d="m400.96,446.05l-15.74-57.83c-2.39-8.78-10.36-14.87-19.46-14.87h-62.93c-10.42,0-19.13,7.94-20.08,18.32l-5,54.37h123.22Z"/>
        <g>
          <g>
            <g>
              <path class="cls-15" d="m356.1,327.5s-47.23,21.24-49.43,23.43c-2.2,2.2-15.74,95.11-15.74,95.11h162.93s-25.26-98.04-28.56-100.24c-3.3-2.2-46.5-20.14-47.6-20.14s-21.6,1.83-21.6,1.83Z"/>
              <g>
                <path class="cls-13" d="m412.95,331.5s4.67.21,5.52,1.49c.85,1.27,2.97,9.13,2.12,11.04-.85,1.91-2.76.21-4.03-2.12-1.27-2.34-2.34-4.67-2.34-4.67l-2.34-1.7,1.06-4.03Z"/>
                <path class="cls-13" d="m407,326.83s5.94.64,6.79,2.76c.85,2.12.64,7.64-.21,10.83-.85,3.18-2.34,5.31-3.61,4.25-1.27-1.06-3.82-12.31-3.82-13.59s.21-4.25.85-4.25Z"/>
                <path class="cls-13" d="m402.76,323.86s5.52,1.49,6.58,2.97c1.06,1.49,1.06,9.77,0,12.95-1.06,3.18-3.61,4.03-4.88,3.18-1.27-.85-2.55-6.16-2.55-8.7s.85-10.4.85-10.4Z"/>
                <g>
                  <path class="cls-13" d="m395.74,322.94s5.61-2.16,7.33,0c1.73,2.16.86,18.55-.43,20.27-1.29,1.73-5.18,0-5.18-2.16s-1.5-8.06-1.5-8.06l-6.69-2.72s3.45-7.33,6.47-7.33Z"/>
                  <line class="cls-13" x1="395.96" y1="332.99" x2="395.33" y2="327.9"/>
                </g>
              </g>
              <path class="cls-10" d="m353.47,329.12s-7.13,1.43-7.6,7.13c-.48,5.7.95,33.73,4.75,36.58,3.8,2.85,22.33-10.45,22.33-10.45,0,0,14.73,7.6,18.05,5.23,3.33-2.38.48-27.08-6.65-36.58s-30.88-1.9-30.88-1.9Z"/>
              <line class="cls-5" x1="324.34" y1="415.41" x2="331.56" y2="377.18"/>
            </g>
            <polyline class="cls-5" points="413.07 369.96 421.73 401.3 415.96 444.98"/>
          </g>
          <ellipse class="cls-7" cx="332.7" cy="301.56" rx="22.52" ry="21.42"/>
          <g>
            <path class="cls-2" d="m341.13,320.95c1.24-.49,2.33-1.05,3.22-1.65"/>
            <path class="cls-2" d="m313.04,291.75s-5.32,14.4,3.44,24.11c6.17,6.83,14.67,7.61,21.13,6.17"/>
          </g>
          <g>
            <path class="cls-13" d="m351.7,315.42s-.37,14.28-.37,18.31,12.08,21.97,19.41,23.07c7.32,1.1,10.25-12.45,10.62-18.67.37-6.22,1.83-15.01,1.83-15.01,0,0-21.24,4.39-31.49-7.69Z"/>
            <path class="cls-12" d="m378.43,329.17l-3.72-5.28c-7.08.06-16.95-1.33-23.01-8.46,0,0-.24,9.22-.33,14.93,17.01,3.59,27.05-1.18,27.05-1.18Z"/>
          </g>
          <g>
            <path class="cls-13" d="m344.38,304.8s4.39,12.08,10.62,17.94c6.22,5.86,18.31,13.55,26.73,9.15,8.42-4.39,13.91-10.25,16.11-23.8,2.2-13.55,0-44.67,0-44.67,0,0-1.1-6.59-12.81-8.79-11.72-2.2-31.85,1.83-35.88,9.89-4.03,8.05-5.13,18.67-5.13,25.26s.37,15.01.37,15.01Z"/>
            <g>
              <ellipse class="cls-17" cx="371.79" cy="292.41" rx="1.7" ry="2.83"/>
              <path class="cls-17" d="m391.05,291.08c0,1.56-.76,2.83-1.7,2.83s-1.7-1.27-1.7-2.83.76-2.83,1.7-2.83,1.7,1.27,1.7,2.83Z"/>
              <path class="cls-17" d="m366.69,286.18s1.51-4.91,7.93-4.15"/>
              <path class="cls-17" d="m385.57,282.02s3.78-5.29,9.06,1.51"/>
              <path class="cls-17" d="m385.57,292.97s-1.51,4.15,0,6.04c1.51,1.89,2.27,5.66-.38,6.42s-6.04.76-6.04.76"/>
              <path class="cls-17" d="m370.47,312.6s4.91,4.53,14.72,2.27"/>
            </g>
          </g>
          <path class="cls-7" d="m391.61,262.77l7.55,17.75s8.68-6.8,7.17-18.12c-1.51-11.33-7.93-12.08-7.93-12.08l-6.8,12.46Z"/>
          <path class="cls-7" d="m342.18,287.59s1.42,4.99,5.81,1.7c4.39-3.3,9.2-13.78,9.2-13.78,0,0-5.86,7.69-2.2,9.89,3.66,2.2,19.04-1.83,35.88-18.31,16.84-16.48,13.55-26,5.49-32.59-8.05-6.59-26.36,4.03-26.36,4.03,0,0-12.81-4.03-28.92,5.49-16.11,9.52-13.18,31.85-10.62,35.88,2.56,4.03,2.93,11.35,11.72,7.69Z"/>
          <path class="cls-13" d="m346.17,291.59s-2.93-9.15-7.69-8.79-7.69,15.01-1.83,21.6c5.86,6.59,9.15,1.1,9.15,1.1"/>
          <path class="cls-8" d="m343.58,303.97c0,1.3-1.06,2.36-2.36,2.36s-2.36-1.06-2.36-2.36,1.06-2.36,2.36-2.36,2.36,1.06,2.36,2.36Z"/>
          <g>
            <g>
              <path class="cls-13" d="m391.25,360.82l10.98,23.8s41.74,24.53,44.3,25.63c2.56,1.1,9.52,7.69,10.62,16.48,1.1,8.79-4.03,13.91-10.25,13.91s-12.08-1.46-16.84-5.49c-4.76-4.03-36.61-43.57-36.61-43.57,0,0-6.96-4.03-8.79-5.49-1.83-1.46-3.66-5.49-3.66-5.49,0,0-3.66,1.83-6.22,1.46-2.56-.37-6.59-8.79-6.59-8.79,0,0,4.03-13.18,5.13-15.01,1.1-1.83,10.98-2.2,10.98-2.2l6.96,4.76Z"/>
              <polyline class="cls-13" points="376.23 376.93 380.26 375.47 380.99 377.3 380.99 380.59"/>
            </g>
            <path class="cls-13" d="m353.17,380.96l9.15-27.83s10.62-4.03,13.55-4.76c2.93-.73,11.72,6.96,13.55,7.32,1.83.37,2.93,4.76,1.83,5.13-1.1.37-4.76-1.46-4.76-1.46l-10.98,1.83s-3.3,17.21-6.96,21.24c-3.66,4.03-9.89,8.06-9.89,8.06,0,0-35.52,42.47-38.08,46.5-2.56,4.03-15.01,11.35-23.8,6.22-8.79-5.13-4.03-17.57-1.46-21.97,2.56-4.39,57.85-40.27,57.85-40.27Z"/>
            <polyline class="cls-13" points="389.42 355.69 380 353.66 373.32 355.14"/>
            <polyline class="cls-13" points="369.34 352.56 379.26 350.68 382.23 351.06"/>
          </g>
        </g>
      </g>
      <g>
        <path class="cls-10" d="m238.35,255.41s6.59,17.57,5.49,35.15c-1.1,17.57,4.39,75.06,5.86,81.28,1.46,6.22,3.3,16.84,3.3,16.84,0,0,57.48,27.83,67.74,31.85s23.07,6.96,23.07,6.96c0,0,21.6-7.32,23.8-9.15,2.2-1.83,7.69.73,7.69.73,0,0,11.72,3.3,12.45,4.39.73,1.1.37,15.74.37,15.74,0,0,1.46,4.03.37,4.39-1.1.37-13.18,3.3-17.21,2.2-4.03-1.1-14.65-5.86-14.65-5.86,0,0-8.05,2.93-12.08,2.2-4.03-.73-9.15-1.83-9.15-1.83,0,0-68.1-10.98-86.41-15.38-18.31-4.39-29.66-6.96-31.49-13.55-1.83-6.59-20.5-87.51-21.24-91.9"/>
        <g>
          <g>
            <path class="cls-12" d="m361.14,431.71h22.86c4.58,0,8.3,3.72,8.3,8.3v6.04h-39.45v-6.04c0-4.58,3.72-8.3,8.3-8.3Z"/>
            <path class="cls-13" d="m371.26,445.8c4.03,1.1,16.11-1.83,17.21-2.2,1.1-.37-.37-4.39-.37-4.39,0,0,.37-14.65-.37-15.74-.73-1.1-12.45-4.39-12.45-4.39,0,0-5.49-2.56-7.69-.73-2.2,1.83-23.8,9.15-23.8,9.15,0,0-12.81-2.93-23.07-6.96-3.62-1.42-13.15-5.82-23.95-10.91-13.79,3.7-14.9,15.73-14.56,21.73,24.98,4.41,53.15,8.96,53.15,8.96,0,0,5.13,1.1,9.15,1.83,4.03.73,12.08-2.2,12.08-2.2,0,0,10.62,4.76,14.65,5.86Z"/>
            <path class="cls-5" d="m374.92,422.74s6.22,7.32,8.42,10.25c2.2,2.93,4.76,6.22,4.76,6.22"/>
            <path class="cls-5" d="m365.77,424.93s9.52,9.89,12.08,11.72c2.56,1.83,5.86,8.06,5.86,8.06"/>
            <path class="cls-5" d="m358.08,431.16s12.08,8.79,13.55,9.89c1.46,1.1,4.76,4.76,4.76,4.76"/>
          </g>
          <path class="cls-12" d="m305.06,413.5c-2.61-1.21-5.39-2.52-8.27-3.87-13.79,3.7-14.9,15.73-14.56,21.73,3.27.58,6.6,1.16,9.91,1.73,1.23-10.91,8.56-16.93,12.91-19.58Z"/>
        </g>
      </g>
    </g>
  </g>
  <g id="Device">
    <g>
      <path class="cls-12" d="m417.5,439.56h148.86v6.49h-154.73v-.62c0-3.24,2.63-5.88,5.88-5.88Z"/>
      <rect class="cls-9" x="472.22" y="439.56" width="94.14" height="6.49"/>
      <polygon class="cls-9" points="576.64 366.52 482.5 366.52 472.22 439.01 566.36 439.01 576.64 366.52"/>
      <path class="cls-12" d="m566.36,439.01l9.03-63.65c-12.17,9.47-29.71,24.1-49.78,40.75-15.37,12.75-28.2,19.42-37.66,22.9h78.42Z"/>
      <ellipse class="cls-9" cx="526.69" cy="407.09" rx="9.02" ry="7.57"/>
    </g>
    <g>
      <line class="cls-5" x1="604" y1="446.05" x2="612.85" y2="446.05"/>
      <line class="cls-5" x1="68" y1="446.05" x2="597" y2="446.05"/>
    </g>
  </g>
  <g id="Window">
    <g>
      <g>
        <g>
          <circle class="cls-8" cx="494.88" cy="155.83" r="16.79" transform="translate(241.67 608.68) rotate(-78.27)"/>
          <line class="cls-5" x1="494.35" y1="153.88" x2="494.35" y2="218.57"/>
          <line class="cls-5" x1="494.35" y1="163.43" x2="503.9" y2="153.53"/>
          <line class="cls-5" x1="493.64" y1="168.38" x2="488.16" y2="162.9"/>
        </g>
        <g>
          <circle class="cls-8" cx="470.94" cy="176.81" r="11.21" transform="translate(-31.77 195.11) rotate(-22.66)"/>
          <line class="cls-5" x1="470.58" y1="175.52" x2="470.58" y2="218.72"/>
          <line class="cls-5" x1="470.58" y1="181.89" x2="476.96" y2="175.28"/>
          <line class="cls-5" x1="470.11" y1="185.19" x2="466.45" y2="181.54"/>
        </g>
        <g>
          <circle class="cls-8" cx="578.9" cy="167.67" r="11.21"/>
          <line class="cls-5" x1="578.54" y1="166.37" x2="578.54" y2="209.58"/>
          <line class="cls-5" x1="578.54" y1="172.75" x2="584.92" y2="166.14"/>
          <line class="cls-5" x1="578.07" y1="176.05" x2="574.41" y2="172.39"/>
        </g>
        <g>
          <g>
            <rect class="cls-9" x="471.55" y="194.66" width="114.5" height="36.13"/>
            <polygon class="cls-8" points="528.95 161.69 471.85 194.66 586.05 194.66 528.95 161.69"/>
          </g>
          <rect class="cls-9" x="523.67" y="191.72" width="28.33" height="39.07"/>
          <rect class="cls-12" x="523.67" y="191.72" width="28.33" height="1.66"/>
          <path class="cls-12" d="m544.91,230.79h-14.15v-24.42c0-3.91,3.17-7.08,7.08-7.08h0c3.91,0,7.08,3.17,7.08,7.08v24.42Z"/>
          <rect class="cls-9" x="463.33" y="200.99" width="65.63" height="29.8"/>
          <rect class="cls-12" x="463.33" y="200.99" width="65.63" height="1.33"/>
          <rect class="cls-8" x="470.55" y="203.45" width="51.19" height="27.34"/>
          <polygon class="cls-8" points="496.15 179.19 461.32 199.3 530.98 199.3 496.15 179.19"/>
          <rect class="cls-9" x="461.32" y="199.3" width="69.66" height="1.69"/>
          <polygon class="cls-8" points="537.83 180.38 519.8 190.8 555.87 190.8 537.83 180.38"/>
          <rect class="cls-9" x="519.8" y="190.8" width="36.08" height="1.67"/>
          <g>
            <g>
              <rect class="cls-11" x="472.42" y="205.64" width="4.15" height="4.15"/>
              <rect class="cls-11" x="478.64" y="205.64" width="4.15" height="4.15"/>
              <rect class="cls-11" x="484.85" y="205.64" width="4.15" height="4.15"/>
              <rect class="cls-11" x="491.07" y="205.64" width="4.15" height="4.15"/>
              <rect class="cls-11" x="497.29" y="205.64" width="4.15" height="4.15"/>
              <rect class="cls-11" x="503.51" y="205.64" width="4.15" height="4.15"/>
              <rect class="cls-11" x="509.72" y="205.64" width="4.15" height="4.15"/>
              <rect class="cls-11" x="515.94" y="205.64" width="4.15" height="4.15"/>
            </g>
            <g>
              <rect class="cls-11" x="472.42" y="211.74" width="4.15" height="4.15"/>
              <rect class="cls-11" x="478.64" y="211.74" width="4.15" height="4.15"/>
              <rect class="cls-11" x="484.85" y="211.74" width="4.15" height="4.15"/>
              <rect class="cls-11" x="491.07" y="211.74" width="4.15" height="4.15"/>
              <rect class="cls-11" x="497.29" y="211.74" width="4.15" height="4.15"/>
              <rect class="cls-11" x="503.51" y="211.74" width="4.15" height="4.15"/>
              <rect class="cls-11" x="509.72" y="211.74" width="4.15" height="4.15"/>
              <rect class="cls-11" x="515.94" y="211.74" width="4.15" height="4.15"/>
            </g>
            <g>
              <rect class="cls-11" x="472.42" y="217.84" width="4.15" height="4.15"/>
              <rect class="cls-11" x="478.64" y="217.84" width="4.15" height="4.15"/>
              <rect class="cls-11" x="484.85" y="217.84" width="4.15" height="4.15"/>
              <rect class="cls-11" x="491.07" y="217.84" width="4.15" height="4.15"/>
              <rect class="cls-11" x="497.29" y="217.84" width="4.15" height="4.15"/>
              <rect class="cls-11" x="503.51" y="217.84" width="4.15" height="4.15"/>
              <rect class="cls-11" x="509.72" y="217.84" width="4.15" height="4.15"/>
              <rect class="cls-11" x="515.94" y="217.84" width="4.15" height="4.15"/>
            </g>
            <g>
              <rect class="cls-11" x="472.42" y="223.94" width="4.15" height="4.15"/>
              <rect class="cls-11" x="478.64" y="223.94" width="4.15" height="4.15"/>
              <rect class="cls-11" x="484.85" y="223.94" width="4.15" height="4.15"/>
              <rect class="cls-11" x="491.07" y="223.94" width="4.15" height="4.15"/>
              <rect class="cls-11" x="497.29" y="223.94" width="4.15" height="4.15"/>
              <rect class="cls-11" x="503.51" y="223.94" width="4.15" height="4.15"/>
              <rect class="cls-11" x="509.72" y="223.94" width="4.15" height="4.15"/>
              <rect class="cls-11" x="515.94" y="223.94" width="4.15" height="4.15"/>
            </g>
          </g>
          <polygon class="cls-9" points="589.3 230.79 547.43 230.79 547.43 191.72 568.37 180.38 589.3 191.72 589.3 230.79"/>
          <polygon class="cls-9" points="592.5 193.39 568.37 180.31 544.23 193.39 543.48 192 568.37 178.52 593.25 192 592.5 193.39"/>
          <polygon class="cls-12" points="547.43 191.72 547.43 192.67 568.37 181.33 589.3 192.67 589.3 191.72 568.37 180.38 547.43 191.72"/>
          <g>
            <rect class="cls-12" x="569.04" y="205.11" width="7.02" height="4.88"/>
            <rect class="cls-12" x="569.04" y="211.6" width="7.02" height="4.88"/>
            <rect class="cls-12" x="569.04" y="198.3" width="7.02" height="5.21"/>
            <rect class="cls-12" x="560.41" y="198.3" width="7.02" height="5.21"/>
            <rect class="cls-12" x="560.41" y="211.6" width="7.02" height="4.88"/>
            <rect class="cls-12" x="560.41" y="205.11" width="7.02" height="4.88"/>
            <rect class="cls-12" x="569.04" y="218.09" width="7.02" height="4.49"/>
            <rect class="cls-12" x="560.41" y="218.09" width="7.02" height="4.49"/>
          </g>
        </g>
        <g>
          <rect class="cls-8" x="483.35" y="245.86" width="86.56" height="33.18" rx="7" ry="7"/>
          <g>
            <path class="cls-19" d="m509.21,255.8c2.04,0,3.09,1.22,3.09,3.35v.42h-1.98v-.55c0-.95-.38-1.31-1.05-1.31s-1.05.36-1.05,1.31c0,2.74,4.1,3.26,4.1,7.07,0,2.13-1.07,3.35-3.12,3.35s-3.12-1.22-3.12-3.35v-.82h1.98v.95c0,.95.42,1.3,1.09,1.3s1.09-.34,1.09-1.3c0-2.74-4.1-3.26-4.1-7.07,0-2.13,1.05-3.35,3.09-3.35Z"/>
            <path class="cls-19" d="m515.61,261.58h2.88v1.91h-2.88v3.91h3.62v1.91h-5.72v-13.34h5.72v1.91h-3.62v3.72Z"/>
            <path class="cls-19" d="m520.52,255.96h2.1v11.43h3.45v1.91h-5.54v-13.34Z"/>
            <path class="cls-19" d="m529.07,261.58h2.88v1.91h-2.88v3.91h3.62v1.91h-5.72v-13.34h5.72v1.91h-3.62v3.72Z"/>
            <path class="cls-19" d="m540.06,264.32v1.77c0,2.13-1.07,3.35-3.12,3.35s-3.12-1.22-3.12-3.35v-6.94c0-2.13,1.07-3.35,3.12-3.35s3.12,1.22,3.12,3.35v1.3h-1.98v-1.43c0-.95-.42-1.31-1.09-1.31s-1.09.36-1.09,1.31v7.2c0,.95.42,1.3,1.09,1.3s1.09-.34,1.09-1.3v-1.91h1.98Z"/>
            <path class="cls-19" d="m540.73,255.96h6.48v1.91h-2.19v11.43h-2.1v-11.43h-2.19v-1.91Z"/>
          </g>
        </g>
        <g>
          <g>
            <path class="cls-9" d="m554.97,294.28s-4.3-6.94-5.69-8.05c-1.39-1.11-4.72-.97-5.27,1.39-.55,2.36.83,3.61,1.8,4.58s3.47,4.99,3.47,4.99c1.19,1.92,1.45,4.9,2.5,7,2.4,4.81,7.12,8.89,12.71,8.92,6.21.03,12.15-5.3,12.95-11.48.34-2.62.4-9.92.41-12.45,0-.56-.19-1.1-.56-1.53-.95-1.13-2.59-1.38-3.84-.6l-.46.29-.49-.78c-.37-.6-.89-1.11-1.52-1.4-1.21-.56-2.54-.35-3.34.54l-.48.53-.57-.91c-1.22-1.47-3.86-1.61-4.98-.07v-11.02c0-1.81-1.46-3.27-3.27-3.27s-3.26,1.45-3.27,3.25l-.12,20.06Z"/>
            <line class="cls-9" x1="567.17" y1="286.24" x2="567.17" y2="292.62"/>
            <line class="cls-9" x1="573" y1="287.34" x2="573" y2="293.03"/>
            <line class="cls-9" x1="561.62" y1="285.26" x2="561.62" y2="291.78"/>
          </g>
          <line class="cls-5" x1="558.35" y1="262.12" x2="558.35" y2="268.6"/>
          <line class="cls-5" x1="563.59" y1="272.59" x2="569.08" y2="272.59"/>
          <line class="cls-5" x1="546.88" y1="272.59" x2="552.37" y2="272.59"/>
          <line class="cls-5" x1="562.34" y1="268.6" x2="564.59" y2="265.86"/>
          <line class="cls-5" x1="553.61" y1="268.6" x2="551.37" y2="265.86"/>
        </g>
        <rect class="cls-5" x="450.74" y="114.92" width="152.21" height="207.75" rx="7.67" ry="7.67"/>
        <path class="cls-12" d="m594.66,114.92h-135.62c-4.58,0-8.3,3.71-8.3,8.3v1.8h152.21v-1.8c0-4.58-3.71-8.3-8.3-8.3Z"/>
        <circle class="cls-9" cx="579.87" cy="119.77" r="2.34"/>
        <circle class="cls-9" cx="588.53" cy="119.77" r="2.34"/>
      </g>
      <line class="cls-5" x1="530.94" y1="323.39" x2="530.94" y2="366.68"/>
    </g>
  </g>
</svg>